<?xml version="1.0" standalone="no"?><!DOCTYPE svg PUBLIC "-//W3C//DTD SVG 1.1//EN" "http://www.w3.org/Graphics/SVG/1.1/DTD/svg11.dtd"><svg t="1569288313443" class="icon" viewBox="0 0 1024 1024" version="1.1" xmlns="http://www.w3.org/2000/svg" p-id="2834" xmlns:xlink="http://www.w3.org/1999/xlink" width="200" height="200"><defs><style type="text/css"></style></defs><path d="M849 160.4c33.7 0 56.1 28.1 56.1 56.1v482.9c0 33.7-28.1 56.1-56.1 56.1H180.8c-33.7 0-56.1-28.1-56.1-56.1V216.5c0-33.7 28.1-56.1 56.1-56.1H849z m5.6-61.8H175.2c-61.8 0-112.3 50.5-112.3 112.3V705c0 61.8 50.5 112.3 112.3 112.3H849c61.8 0 112.3-50.5 112.3-112.3V210.9c0-61.7-50.6-112.3-106.7-112.3zM776 351.3c-22.5-28.1-56.1-44.9-95.5-44.9H545.8v320h129.1c39.3 0 73-16.8 101.1-44.9 22.5-28.1 39.3-67.4 33.7-117.9 0-44.9-11.3-84.2-33.7-112.3z m-45 196.5c-16.8 16.8-33.7 28.1-61.8 28.1h-67.4V362.5h73c22.5 0 44.9 11.2 56.1 28.1 11.2 16.8 22.5 44.9 22.5 78.6s-5.5 56.2-22.4 78.6zM394.2 312h-50.5l-118 314.4h61.8l33.7-84.2h101.1l28.1 84.2h56.1L394.2 312z m-61.8 179.7l33.7-123.5 39.3 123.5h-73zM127.1 860.5h770v64.2h-770v-64.2z" p-id="2835"></path></svg>