<?xml version="1.0" standalone="no"?><!DOCTYPE svg PUBLIC "-//W3C//DTD SVG 1.1//EN" "http://www.w3.org/Graphics/SVG/1.1/DTD/svg11.dtd"><svg t="1626688352323" class="icon" viewBox="0 0 1024 1024" version="1.1" xmlns="http://www.w3.org/2000/svg" p-id="6198" xmlns:xlink="http://www.w3.org/1999/xlink" width="200" height="200"><defs><style type="text/css"></style></defs><path d="M202.936 792.037c-15.481 0-28.031 12.55-28.031 28.031s12.55 28.031 28.031 28.031h280.31c15.481 0 28.031-12.55 28.031-28.031s-12.55-28.031-28.031-28.031z m0.141-168.186c-15.481 0-28.031 12.55-28.031 28.031s12.55 28.031 28.031 28.031h168.469c15.481 0 28.031-12.55 28.031-28.031s-12.55-28.031-28.031-28.031zM63.59 511.727c0-30.962 25.1-56.062 56.062-56.062h784.869c30.963 0 56.062 25.1 56.062 56.062v379.497c0 38.11-30.89 68.999-69 68.999H132.589c-38.105 0-68.999-30.889-68.999-68.999zM539.308 343.54V119.292c0-30.962 25.1-56.062 56.062-56.062h156.417a68.909 68.909 0 0 1 56.099 28.896L959.6 343.54c0.066 0 0.124 0.279 0.174 0.838v0.519c2.469 27.634-23.734 52.038-51.369 54.507a50.53 50.53 0 0 1-4.47 0.199H595.37c-30.962-0.001-56.062-25.101-56.062-56.063z m-111.169 56.062H119.575a50.53 50.53 0 0 1-4.47-0.199c-27.635-2.469-53.838-26.873-51.369-54.507v-0.519c0.049-0.558 0.108-0.838 0.174-0.838L215.623 92.125a68.909 68.909 0 0 1 56.099-28.896h156.417c30.962 0 56.062 25.1 56.062 56.062V343.54c0 30.962-25.1 56.062-56.062 56.062z" p-id="6199" fill="#bfcbd9"></path></svg>