<?xml version="1.0" standalone="no"?><!DOCTYPE svg PUBLIC "-//W3C//DTD SVG 1.1//EN" "http://www.w3.org/Graphics/SVG/1.1/DTD/svg11.dtd"><svg t="1606445776689" class="icon" viewBox="0 0 1024 1024" version="1.1" xmlns="http://www.w3.org/2000/svg" p-id="9051" xmlns:xlink="http://www.w3.org/1999/xlink" width="256" height="256"><defs><style type="text/css"></style></defs><path d="M698.88 427.52c11.264 0 20.48-9.216 20.48-20.48s-9.216-20.48-20.48-20.48H624.64l72.192-108.032c6.144-9.728 3.584-22.528-5.632-28.672-9.728-6.144-22.528-3.584-28.672 5.632l-87.552 131.072h-56.832c-2.048-0.512-4.096-1.024-6.144-1.024s-4.096 0.512-6.144 1.024H448.512l-87.04-131.072c-6.144-9.728-18.944-12.288-28.672-5.632-9.728 6.144-12.288 18.944-5.632 28.672L399.36 386.56H325.12c-11.264 0-20.48 9.216-20.48 20.48s9.216 20.48 20.48 20.48H491.52v122.88H325.12c-11.264 0-20.48 9.216-20.48 20.48s9.216 20.48 20.48 20.48H491.52v129.024c0 11.264 9.216 20.48 20.48 20.48s20.48-9.216 20.48-20.48v-129.024h165.888c11.264 0 20.48-9.216 20.48-20.48s-9.216-20.48-20.48-20.48H532.48v-122.88h166.4z" fill="#bfcbd9" p-id="9052"></path><path d="M952.32 391.68c11.264 0 20.48-9.216 20.48-20.48V226.816C972.8 163.84 921.6 112.64 858.624 112.64H165.376C102.4 112.64 51.2 163.84 51.2 226.816v144.384c0 11.264 9.216 20.48 20.48 20.48 56.32 0 102.4 46.08 102.4 102.4s-46.08 102.4-102.4 102.4c-11.264 0-20.48 9.216-20.48 20.48v144.384C51.2 824.32 102.4 875.52 165.376 875.52h693.248c62.976 0 114.176-51.2 114.176-114.176v-144.384c0-11.264-9.216-20.48-20.48-20.48-56.32 0-102.4-46.08-102.4-102.4s45.568-102.4 102.4-102.4z m-143.872 102.4c0 72.192 53.76 132.096 122.88 142.336v125.44c0 40.448-32.768 72.704-72.704 72.704H165.376c-40.448 0-72.704-32.768-72.704-72.704v-125.44c69.632-10.24 122.88-70.144 122.88-142.336 0-72.192-53.76-132.096-122.88-142.336V226.816c0-40.448 32.768-72.704 72.704-72.704h693.248c39.936 0 72.704 32.768 72.704 72.704v125.44c-69.12 9.728-122.88 69.632-122.88 141.824z" fill="#bfcbd9" p-id="9053"></path></svg>