<?xml version="1.0" standalone="no"?><!DOCTYPE svg PUBLIC "-//W3C//DTD SVG 1.1//EN" "http://www.w3.org/Graphics/SVG/1.1/DTD/svg11.dtd"><svg t="1609741254857" class="icon" viewBox="0 0 1024 1024" version="1.1" xmlns="http://www.w3.org/2000/svg" p-id="4640" xmlns:xlink="http://www.w3.org/1999/xlink" width="128" height="128"><defs><style type="text/css"></style></defs><path d="M512 961.5c-60.6 0-119.4-11.9-174.8-35.3-53.5-22.6-101.5-55-142.7-96.2-41.2-41.2-73.6-89.2-96.2-142.7C74.9 631.9 63 573.1 63 512.5s11.9-119.4 35.3-174.8c22.6-53.5 55-101.5 96.2-142.7 41.2-41.2 89.2-73.6 142.7-96.2C392.6 75.4 451.4 63.5 512 63.5s119.4 11.9 174.8 35.3c53.5 22.6 101.5 55 142.7 96.2 41.2 41.2 73.6 89.2 96.2 142.7 23.4 55.4 35.3 114.2 35.3 174.8s-11.9 119.4-35.3 174.8c-22.6 53.5-55 101.5-96.2 142.7-41.2 41.2-89.2 73.6-142.7 96.2-55.4 23.4-114.2 35.3-174.8 35.3z m0-848c-220 0-399 179-399 399s179 399 399 399 399-179 399-399-179-399-399-399z" fill="#bfbfbf" p-id="4641"></path><path d="M615.4 713H407.6c-19.9 0-37.2-12.8-43-31.7l-55.3-179.5c-4.7-15.3-1.1-31.5 9.6-43.4 10.7-11.9 26.5-17.1 42.2-14l70.9 14 38-92.3c7-16.9 23.3-27.9 41.6-27.9s34.6 10.9 41.6 27.9l38 92.3 70.9-14c15.7-3.1 31.5 2.1 42.2 14 10.7 11.9 14.3 28.1 9.6 43.4l-55.3 179.5c-6 18.9-23.3 31.7-43.2 31.7z m-203-46.5z m-1.1-3.5h200.4l51.8-168-66.7 13.2c-21 4.2-42.2-7.2-50.4-27l-35-84.9-35 84.9c-8.2 19.8-29.3 31.2-50.4 27L359.5 495l51.8 168zM616 791H407c-13.8 0-25-11.2-25-25s11.2-25 25-25h209c13.8 0 25 11.2 25 25s-11.2 25-25 25z" fill="#bfbfbf" p-id="4642"></path><path d="M285 430.5m-35.5 0a35.5 35.5 0 1 0 71 0 35.5 35.5 0 1 0-71 0Z" fill="#bfbfbf" p-id="4643"></path><path d="M511.5 293.5m-35.5 0a35.5 35.5 0 1 0 71 0 35.5 35.5 0 1 0-71 0Z" fill="#bfbfbf" p-id="4644"></path><path d="M739 430.5m-35.5 0a35.5 35.5 0 1 0 71 0 35.5 35.5 0 1 0-71 0Z" fill="#bfbfbf" p-id="4645"></path></svg>