<?xml version="1.0" standalone="no"?><!DOCTYPE svg PUBLIC "-//W3C//DTD SVG 1.1//EN" "http://www.w3.org/Graphics/SVG/1.1/DTD/svg11.dtd"><svg t="1597630062074" class="icon" viewBox="0 0 1024 1024" version="1.1" xmlns="http://www.w3.org/2000/svg" p-id="2248" width="256" height="256" xmlns:xlink="http://www.w3.org/1999/xlink"><defs><style type="text/css"></style></defs><path d="M167 186.1h165v61.8h360v-61.8h165V458h50V136.1H692V67.9H332v68.2H117v820h298.9v-50H167v-720z m215-68.2h260v80H382v-80z m-95 407.9h150v50H287v-50z m450-100.7H287v-50h450v50z m-61.3 71c-127 0-230 103-230 230s103 230 230 230 230-103 230-230-103-230-230-230zM803 853.4c-34 34-79.2 52.7-127.3 52.7s-93.3-18.7-127.3-52.7-52.7-79.2-52.7-127.3 18.7-93.3 52.7-127.3c24.9-24.9 55.7-41.5 89.3-48.7V767h158v-50h-108V546.5c43.6 2.8 84.1 21.2 115.3 52.3 34 34 52.7 79.2 52.7 127.3S837 819.4 803 853.4z" fill="#dbdbdb" p-id="2249"></path></svg>