<?xml version="1.0" standalone="no"?><!DOCTYPE svg PUBLIC "-//W3C//DTD SVG 1.1//EN" "http://www.w3.org/Graphics/SVG/1.1/DTD/svg11.dtd"><svg t="1568715393159" class="icon" viewBox="0 0 1024 1024" version="1.1" xmlns="http://www.w3.org/2000/svg" p-id="7521" width="200" height="200" xmlns:xlink="http://www.w3.org/1999/xlink"><defs><style type="text/css"></style></defs><path d="M511.090414 490.418092a31.368709 31.368709 0 0 1-14.743283-3.764285L88.552917 267.071846a31.368709 31.368709 0 0 1 0-55.836562L512.972557 4.201606a31.368709 31.368709 0 0 1 31.368709 0l392.10936 238.08953a31.368709 31.368709 0 0 1-3.136571 55.208847l-407.794214 188.212253a31.368709 31.368709 0 0 1-14.429427 4.705856zM171.680045 239.467422L511.090414 424.229247l340.037084-156.843544L525.205984 68.195451z" fill="" p-id="7522"></path><path d="M511.090414 1023.372286a31.368709 31.368709 0 0 1-16.312568-4.704857L86.985631 767.716759a31.368709 31.368709 0 0 1-15.057141-26.663852V239.153565a31.368709 31.368709 0 0 1 46.111992-27.604424l407.794215 219.581962a32.936994 32.936994 0 0 1 17.25214 28.231138v533.26905A31.368709 31.368709 0 0 1 511.718128 1024zM134.664909 722.547338l345.056797 213.30782V477.86881L134.664909 292.167413z" fill="" p-id="7523"></path><path d="M511.090414 1023.372286a31.368709 31.368709 0 0 1-31.368708-31.368709V458.735527a31.368709 31.368709 0 0 1 18.193711-28.859852l407.794214-188.212253a31.368709 31.368709 0 0 1 44.542707 28.858852v501.900341a31.368709 31.368709 0 0 1-16.625425 27.604424l-407.794215 219.580962a31.368709 31.368709 0 0 1-14.743283 3.764285z m31.368709-543.934191v459.866491l345.055798-185.389539V319.457979zM251.135846 423.776453l116.188066 59.404936q27.37153 13.994624 13.376906 41.366155-13.993625 27.37153-41.366154 13.376905l-116.187067-59.405935q-27.37153-13.993625-13.377905-41.365155 13.994624-27.37153 41.366154-13.376906z" fill="" p-id="7524"></path></svg>