<?xml version="1.0" standalone="no"?><!DOCTYPE svg PUBLIC "-//W3C//DTD SVG 1.1//EN" "http://www.w3.org/Graphics/SVG/1.1/DTD/svg11.dtd"><svg t="1596095855986" class="icon" viewBox="0 0 1024 1024" version="1.1" xmlns="http://www.w3.org/2000/svg" p-id="8039" xmlns:xlink="http://www.w3.org/1999/xlink" width="256" height="256"><defs><style type="text/css"></style></defs><path d="M934.4 627.2c-12.8 4.266667-25.6 4.266667-38.4 4.266667-55.466667 0-106.666667-34.133333-128-89.6-21.333333 51.2-72.533333 89.6-128 89.6s-106.666667-34.133333-128-89.6c-21.333333 51.2-72.533333 89.6-128 89.6s-106.666667-34.133333-128-89.6c-21.333333 51.2-72.533333 89.6-128 89.6-12.8 0-25.6 0-38.4-4.266667v290.133333c0 25.6 29.866667 59.733333 55.466667 59.733334h738.133333c25.6 0 55.466667-34.133333 55.466667-59.733334v-290.133333z" fill="#e6e6e6" p-id="8040"></path><path d="M1024 409.6l-89.6-234.666667H89.6L0 409.6c0 72.533333 55.466667 128 128 128s128-55.466667 128-128c0 46.933333 25.6 89.6 64 110.933333s89.6 21.333333 128 0c38.4-21.333333 64-64 64-110.933333 0 46.933333 21.333333 89.6 64 115.2 38.4 25.6 89.6 25.6 128 0 38.4-21.333333 59.733333-64 64-106.666667v-8.533333 8.533333c0 42.666667 25.6 85.333333 64 106.666667 38.4 25.6 89.6 25.6 132.266667 0 38.4-25.6 59.733333-68.266667 59.733333-115.2zM853.333333 128H170.666667c-25.6 0-42.666667-17.066667-42.666667-42.666667 0-21.333333 17.066667-42.666667 42.666667-42.666666h682.666666c21.333333 0 42.666667 17.066667 42.666667 42.666666s-17.066667 42.666667-42.666667 42.666667z" fill="#e6e6e6" p-id="8041"></path></svg>