<?xml version="1.0" standalone="no"?><!DOCTYPE svg PUBLIC "-//W3C//DTD SVG 1.1//EN" "http://www.w3.org/Graphics/SVG/1.1/DTD/svg11.dtd"><svg t="1597366940718" class="icon" viewBox="0 0 1024 1024" version="1.1" xmlns="http://www.w3.org/2000/svg" p-id="4027" width="512" height="512" data-spm-anchor-id="a313x.7781069.0.i4" xmlns:xlink="http://www.w3.org/1999/xlink"><defs><style type="text/css"></style></defs><path d="M339.2 128l-32 134.4h467.2v230.4l64 12.8L896 256zM422.4 390.4c0 12.8 6.4 19.2 19.2 19.2v-38.4c-6.4 0-19.2 6.4-19.2 19.2zM454.4 428.8v44.8c12.8 0 25.6-6.4 25.6-19.2 0-12.8-6.4-25.6-25.6-25.6z" fill="#e6e6e6" p-id="4028"></path><path d="M179.2 288v256h576v-256h-576z m275.2 198.4v19.2H448v-19.2c-25.6 0-44.8-12.8-44.8-38.4l19.2-6.4c0 19.2 12.8 32 25.6 32v-51.2c-32 0-44.8-12.8-44.8-32s12.8-32 38.4-32v-19.2h12.8v12.8c19.2 0 32 12.8 38.4 32l-12.8 6.4c0-12.8-12.8-19.2-19.2-25.6v44.8c25.6 6.4 38.4 19.2 38.4 38.4 0 25.6-19.2 38.4-44.8 38.4z" fill="#e6e6e6" p-id="4029"></path><path d="M307.2 601.6c0-12.8-12.8-12.8-19.2-6.4l-121.6 121.6c-6.4 6.4-6.4 12.8 0 12.8l121.6 121.6c6.4 6.4 19.2 0 19.2-6.4V601.6zM819.2 576c-83.2 102.4-192 96-192 96h-320V768h307.2c6.4 0 19.2 0 25.6-6.4 153.6-64 262.4-281.6 179.2-185.6z" fill="#e6e6e6" p-id="4030"></path></svg>