<?xml version="1.0" standalone="no"?><!DOCTYPE svg PUBLIC "-//W3C//DTD SVG 1.1//EN" "http://www.w3.org/Graphics/SVG/1.1/DTD/svg11.dtd"><svg t="1615780509686" class="icon" viewBox="0 0 1024 1024" version="1.1" xmlns="http://www.w3.org/2000/svg" p-id="3899" width="256" height="256" xmlns:xlink="http://www.w3.org/1999/xlink"><defs><style type="text/css"></style></defs><path d="M987.136 480.256h-87.552c4.608-23.04 9.216-46.08 9.216-69.12v-13.824c0-147.456-110.592-263.168-244.736-263.168-59.904 0-115.2 23.04-161.792 64.512-46.08-41.472-101.376-64-161.792-64-134.144-4.608-244.736 115.2-244.736 263.168v18.432c0 23.04 4.608 50.688 13.824 78.336H36.864c-13.824-4.608-23.04 4.608-23.04 18.432s9.216 23.04 23.04 23.04h101.376c73.728 138.752 249.344 281.6 327.68 341.504l4.608 4.608c9.216 9.216 23.04 13.824 36.864 13.824s27.648-4.608 36.864-13.824l4.608-4.608c69.12-55.296 244.736-198.656 323.072-336.896 4.608-4.608 4.608-9.216 9.216-13.824H992.256c13.824 0 23.04-9.216 23.04-23.04-4.608-9.728-13.824-23.552-28.16-23.552z m-470.528 359.936c0 4.608-4.096 4.608 0 0-4.608 4.608-9.216 4.608-13.824 4.608 0 0-4.608 0-9.216-4.608l-4.608-4.608c-55.296-36.864-217.088-171.008-300.032-300.032 4.608 0 9.216 0 9.216-4.608l106.496-124.416 115.2 184.32c4.608 9.216 13.824 9.216 18.432 9.216 9.216 0 13.824-4.608 18.432-13.824l36.864-55.296 50.688 106.496c4.608 9.216 13.824 13.824 23.04 13.824 8.704 0 18.432-9.216 18.432-18.432l50.688-179.712 32.256 64.512c4.608 9.216 13.824 13.824 23.04 13.824h129.024c-77.824 123.904-235.008 258.048-304.128 308.736z m346.112-433.664v4.608c0 18.432-4.608 36.864-13.824 59.904 0 4.608-4.608 9.216-4.608 9.216h-142.848L645.632 373.76c-4.608-9.216-13.824-13.824-23.04-13.824-8.704 0-18.432 9.216-18.432 18.432l-46.08 175.104-41.472-87.552c-4.608-9.216-13.824-13.824-18.432-13.824-9.216 0-18.432 4.608-23.04 13.824l-32.256 59.904-115.2-175.104c-4.608-9.216-9.216-13.824-18.432-13.824-8.704 0-13.824 4.608-18.432 9.216l-120.32 143.36h-4.608c0-4.608-4.608-4.608-4.608-9.216-9.216-23.04-13.824-46.08-13.824-69.12v-13.824c0-119.808 87.552-217.088 198.656-217.088 55.296 0 106.496 23.04 142.848 64.512 4.608 4.608 9.216 9.216 18.432 9.216 4.608 0 13.824-4.608 18.432-9.216 36.864-41.472 87.552-64.512 142.848-64.512 106.496 0 194.048 96.768 194.048 217.088v9.216z" p-id="3900" fill="#cdcdcd"></path></svg>