<?xml version="1.0" standalone="no"?><!DOCTYPE svg PUBLIC "-//W3C//DTD SVG 1.1//EN" "http://www.w3.org/Graphics/SVG/1.1/DTD/svg11.dtd"><svg t="1597041641101" class="icon" viewBox="0 0 1024 1024" version="1.1" xmlns="http://www.w3.org/2000/svg" p-id="3358" xmlns:xlink="http://www.w3.org/1999/xlink" width="256" height="256"><defs><style type="text/css"></style></defs><path d="M926.848 198.336H586.208a315.04 315.04 0 0 1 35.104 144.48c0 174.24-140.768 315.488-314.464 315.488a312.224 312.224 0 0 1-154.496-40.864v287.488a96.96 96.96 0 0 0 96.832 97.056h677.632a96.896 96.896 0 0 0 96.8-97.056V295.456a96.864 96.864 0 0 0-96.768-97.12z m-168.288 570.56l-29.568 37.12a2558.624 2558.624 0 0 0-50.912-39.392v125.152h-49.44v-136.736c-13.024 13.216-26.944 26.656-41.6 40.352a604.896 604.896 0 0 0-16.032-53.952c34.112-27.616 63.104-56.96 86.816-88.192h-80.032v-46.368h63.872a879.552 879.552 0 0 0-36.128-49.664l40.864-23.168c16.16 19.04 30.304 37.12 42.368 54.208l-31.328 18.624h58.016v42.848a611.84 611.84 0 0 1-37.44 50.496v16.736c5.024 3.008 9.92 6.016 14.624 9.12 12.48-17.856 24.352-35.712 35.648-53.504l35.52 22.464c-13.152 17.6-26.528 34.56-40.032 50.88l34.784 22.976z m133.12-5.632a1894.88 1894.88 0 0 0-62.976-67.488v196.032h-51.584v-352h51.584v122.272l17.408-15.52a1763.264 1763.264 0 0 1 84.32 78.208l-38.752 38.496z" p-id="3359" fill="#d4237a"></path><path d="M301.312 33.76C136.32 33.76 2.56 167.968 2.56 333.504c0 165.536 133.76 299.712 298.752 299.712s298.752-134.176 298.752-299.712-133.76-299.744-298.752-299.744zM338.24 153.92l-9.344 251.84H267.552l-8.928-251.84h79.616z m-7.488 357.792a40.64 40.64 0 0 1-29.28 11.744c-14.368 0-25.792-3.904-34.304-11.744a37.44 37.44 0 0 1-12.768-28.672c0-11.744 4.288-21.376 12.864-28.896a46.4 46.4 0 0 1 31.648-11.296c12.64 0 23.168 3.808 31.488 11.392s12.544 17.216 12.544 28.768a38.4 38.4 0 0 1-12.192 28.704z" p-id="3360" fill="#d4237a"></path></svg>