<?xml version="1.0" standalone="no"?><!DOCTYPE svg PUBLIC "-//W3C//DTD SVG 1.1//EN" "http://www.w3.org/Graphics/SVG/1.1/DTD/svg11.dtd"><svg t="1597041517421" class="icon" viewBox="0 0 1024 1024" version="1.1" xmlns="http://www.w3.org/2000/svg" p-id="2530" xmlns:xlink="http://www.w3.org/1999/xlink" width="256" height="256"><defs><style type="text/css"></style></defs><path d="M864 128H160c-17.6 0-32 14.4-32 32v704c0 17.6 14.4 32 32 32h704c17.6 0 32-14.4 32-32V160c0-17.6-14.4-32-32-32zM624 480H400V192h224v288zM368 608H192V384h176v224z m32-96h224v320H400V512z m256-128h176v224.8H656V384z m176-32H656V192h176v160zM368 192v160H192V192h176zM192 640h176v192H192V640z m464 192V640.8h176V832H656z" p-id="2531" fill="#1296db"></path></svg>