<?xml version="1.0" standalone="no"?><!DOCTYPE svg PUBLIC "-//W3C//DTD SVG 1.1//EN" "http://www.w3.org/Graphics/SVG/1.1/DTD/svg11.dtd"><svg t="1597041657807" class="icon" viewBox="0 0 1024 1024" version="1.1" xmlns="http://www.w3.org/2000/svg" p-id="3552" xmlns:xlink="http://www.w3.org/1999/xlink" width="256" height="256"><defs><style type="text/css"></style></defs><path d="M124.416 7.168C70.144 24.576 28.672 62.464 10.24 111.104 0.512 137.728 0 150.528 0 512c0 363.008 0.512 374.272 10.24 401.408 14.848 38.912 45.056 71.168 86.016 91.136l34.304 16.896h762.88l34.304-16.896c36.864-17.92 63.488-46.08 82.432-86.528l11.264-24.576V130.56l-11.264-24.576c-18.944-40.448-45.568-68.608-82.432-86.528L893.44 2.56 519.68 1.536c-299.008-1.024-377.856 0.512-395.264 5.632z m407.04 234.496c7.168 7.168 8.704 115.2 1.536 125.952-2.048 4.096-9.728 6.144-16.384 5.12-12.288-1.536-12.288-2.56-13.824-62.464-1.536-59.904 2.048-74.752 16.384-74.752 3.584 0 8.704 2.56 12.288 6.144zM380.928 339.968c31.744 52.736 33.28 65.024 9.728 68.608-8.192 1.024-16.384-8.192-39.424-47.616-34.304-58.88-37.376-76.8-10.752-73.216 6.656 1.024 19.968 17.92 40.448 52.224z m328.704-34.816c5.632 8.704 2.56 16.384-23.552 60.928-23.552 40.96-31.744 51.2-40.96 51.2-24.576 0-23.04-12.8 8.192-66.56 36.352-63.488 41.984-68.096 56.32-45.568zM551.936 416.768c56.32 15.36 98.816 52.736 120.32 106.496 9.216 23.552 10.752 40.448 12.8 128l2.048 100.864 46.08 1.536c36.864 1.024 47.616 3.584 51.712 10.24 4.096 6.144 3.584 10.752-1.024 16.384-6.144 7.168-36.352 8.192-271.872 8.192-284.672 0-282.112 0-273.92-25.6 3.072-9.216 7.168-10.24 51.2-10.24h48.128l1.536-103.936c1.536-98.816 2.048-104.448 14.848-131.584 24.064-51.712 64.512-86.528 116.736-100.352 31.232-8.704 48.64-8.704 81.408 0z m-271.36 34.304c31.744 21.504 37.888 29.184 31.232 40.96-7.168 13.824-18.944 12.288-46.592-7.168-26.624-17.92-33.792-30.72-24.576-41.984 8.704-10.752 12.8-9.728 39.936 8.192z m492.544 2.048c9.216 11.264 2.048 24.064-25.6 42.496-28.672 19.456-43.008 19.968-45.056 0.512-1.024-10.752 3.072-16.384 25.6-31.744 30.72-20.48 35.84-22.016 45.056-11.264z" p-id="3553" fill="#d81e06"></path><path d="M452.096 460.8c-32.256 16.384-52.224 36.864-67.072 70.656-6.656 15.36-8.192 37.376-8.704 118.784v99.84l134.656 1.536 134.144 1.024v-98.304c0-54.272-2.56-107.008-5.12-117.248-7.168-26.624-43.52-65.536-74.24-79.36-37.376-17.92-74.24-16.384-113.664 3.072z m84.48 41.984c10.752 10.752 6.656 23.552-12.288 45.056l-18.432 20.48h17.408c24.064 0 45.056 16.896 45.056 35.84 0 18.432-73.728 117.248-88.064 117.76-4.608 0-19.456-15.36-19.456-19.968 0-2.048 15.872-24.576 35.84-49.664l35.328-45.568-25.6-2.56c-45.568-5.12-52.736-30.72-19.456-70.144 32.256-37.888 38.912-41.984 49.664-31.232z" p-id="3554" fill="#d81e06"></path></svg>